<mxfile host="app.diagrams.net" modified="2020-11-23T08:10:42.488Z" agent="5.0 (X11; Linux x86_64) AppleWebKit/537.36 (KHTML, like Gecko) Chrome/86.0.4240.111 Safari/537.36" etag="spucVPbW1Df9hrqDoUBA" version="13.10.1" type="github">
  <diagram id="AMlBiUVu1VCOGnAXjjPw" name="Page-1">
    <mxGraphModel dx="1350" dy="806" grid="1" gridSize="10" guides="1" tooltips="1" connect="1" arrows="1" fold="1" page="1" pageScale="1" pageWidth="827" pageHeight="1169" math="0" shadow="0">
      <root>
        <mxCell id="0" />
        <mxCell id="1" parent="0" />
        <mxCell id="ujtyWC2KypaY7uKOL5os-2" value="&lt;div&gt;&lt;span style=&quot;font-size: 17px&quot;&gt;&amp;nbsp; &amp;nbsp; &amp;nbsp; &amp;nbsp; &amp;nbsp; &amp;nbsp; &amp;nbsp; &amp;nbsp; &amp;nbsp; &amp;nbsp; &lt;/span&gt;&lt;b&gt;&lt;font style=&quot;font-size: 30px&quot;&gt;UI&lt;/font&gt;&lt;/b&gt;&lt;/div&gt;&lt;div&gt;&lt;span style=&quot;font-size: 17px&quot;&gt;&lt;br&gt;&lt;/span&gt;&lt;/div&gt;&lt;div&gt;&lt;span style=&quot;font-size: 17px&quot;&gt;&lt;br&gt;&lt;/span&gt;&lt;/div&gt;&lt;div&gt;&lt;span style=&quot;font-size: 17px&quot;&gt;&lt;br&gt;&lt;/span&gt;&lt;/div&gt;&lt;div&gt;&lt;span style=&quot;font-size: 17px&quot;&gt;&lt;br&gt;&lt;/span&gt;&lt;/div&gt;&lt;div&gt;&lt;span style=&quot;font-size: 17px&quot;&gt;&lt;br&gt;&lt;/span&gt;&lt;/div&gt;" style="rounded=0;whiteSpace=wrap;html=1;align=left;" vertex="1" parent="1">
          <mxGeometry x="49" y="190" width="260" height="130" as="geometry" />
        </mxCell>
        <mxCell id="ujtyWC2KypaY7uKOL5os-3" value="&lt;b&gt;&lt;font style=&quot;font-size: 19px&quot;&gt;JS&lt;/font&gt;&lt;/b&gt;" style="rounded=1;whiteSpace=wrap;html=1;" vertex="1" parent="1">
          <mxGeometry x="80" y="250" width="80" height="40" as="geometry" />
        </mxCell>
        <mxCell id="ujtyWC2KypaY7uKOL5os-4" value="&lt;b&gt;&lt;font style=&quot;font-size: 18px&quot;&gt;HTML&lt;/font&gt;&lt;/b&gt;" style="rounded=1;whiteSpace=wrap;html=1;" vertex="1" parent="1">
          <mxGeometry x="190" y="250" width="80" height="40" as="geometry" />
        </mxCell>
        <mxCell id="ujtyWC2KypaY7uKOL5os-5" value="&lt;b&gt;&lt;font style=&quot;font-size: 16px&quot;&gt;DJANGO REST API&lt;/font&gt;&lt;/b&gt;" style="rounded=1;whiteSpace=wrap;html=1;" vertex="1" parent="1">
          <mxGeometry x="400" y="210" width="140" height="90" as="geometry" />
        </mxCell>
        <mxCell id="ujtyWC2KypaY7uKOL5os-6" value="&lt;b&gt;&lt;font style=&quot;font-size: 20px&quot;&gt;NLP Model&lt;/font&gt;&lt;/b&gt;" style="rounded=1;whiteSpace=wrap;html=1;" vertex="1" parent="1">
          <mxGeometry x="630" y="217.5" width="150" height="75" as="geometry" />
        </mxCell>
        <mxCell id="ujtyWC2KypaY7uKOL5os-7" value="&lt;b&gt;&lt;font style=&quot;font-size: 18px&quot;&gt;TWITTER API&lt;/font&gt;&lt;/b&gt;" style="rounded=1;whiteSpace=wrap;html=1;" vertex="1" parent="1">
          <mxGeometry x="620" y="360" width="180" height="60" as="geometry" />
        </mxCell>
        <mxCell id="ujtyWC2KypaY7uKOL5os-9" value="" style="endArrow=classic;startArrow=classic;html=1;entryX=0;entryY=0.5;entryDx=0;entryDy=0;" edge="1" parent="1" source="ujtyWC2KypaY7uKOL5os-2" target="ujtyWC2KypaY7uKOL5os-5">
          <mxGeometry width="50" height="50" relative="1" as="geometry">
            <mxPoint x="309" y="305" as="sourcePoint" />
            <mxPoint x="379.71067811865476" y="255" as="targetPoint" />
          </mxGeometry>
        </mxCell>
        <mxCell id="ujtyWC2KypaY7uKOL5os-11" value="" style="endArrow=classic;startArrow=classic;html=1;exitX=0.5;exitY=1;exitDx=0;exitDy=0;entryX=0.467;entryY=-0.05;entryDx=0;entryDy=0;entryPerimeter=0;" edge="1" parent="1" source="ujtyWC2KypaY7uKOL5os-6" target="ujtyWC2KypaY7uKOL5os-7">
          <mxGeometry width="50" height="50" relative="1" as="geometry">
            <mxPoint x="590" y="400" as="sourcePoint" />
            <mxPoint x="640" y="350" as="targetPoint" />
          </mxGeometry>
        </mxCell>
        <mxCell id="ujtyWC2KypaY7uKOL5os-13" value="" style="endArrow=classic;startArrow=classic;html=1;entryX=0;entryY=0.5;entryDx=0;entryDy=0;exitX=1;exitY=0.5;exitDx=0;exitDy=0;" edge="1" parent="1" source="ujtyWC2KypaY7uKOL5os-5" target="ujtyWC2KypaY7uKOL5os-6">
          <mxGeometry width="50" height="50" relative="1" as="geometry">
            <mxPoint x="550" y="270" as="sourcePoint" />
            <mxPoint x="600" y="220" as="targetPoint" />
          </mxGeometry>
        </mxCell>
        <mxCell id="ujtyWC2KypaY7uKOL5os-18" style="edgeStyle=orthogonalEdgeStyle;rounded=0;orthogonalLoop=1;jettySize=auto;html=1;" edge="1" parent="1" source="ujtyWC2KypaY7uKOL5os-16">
          <mxGeometry relative="1" as="geometry">
            <mxPoint x="460" y="200" as="targetPoint" />
          </mxGeometry>
        </mxCell>
        <mxCell id="ujtyWC2KypaY7uKOL5os-19" style="edgeStyle=orthogonalEdgeStyle;rounded=0;orthogonalLoop=1;jettySize=auto;html=1;exitX=1;exitY=0.5;exitDx=0;exitDy=0;entryX=0.5;entryY=0;entryDx=0;entryDy=0;" edge="1" parent="1" source="ujtyWC2KypaY7uKOL5os-16" target="ujtyWC2KypaY7uKOL5os-6">
          <mxGeometry relative="1" as="geometry" />
        </mxCell>
        <mxCell id="ujtyWC2KypaY7uKOL5os-16" value="&lt;b&gt;&lt;font style=&quot;font-size: 14px&quot;&gt;Hashtags and Tweets&lt;/font&gt;&lt;/b&gt;" style="ellipse;whiteSpace=wrap;html=1;" vertex="1" parent="1">
          <mxGeometry x="530" y="50" width="120" height="100" as="geometry" />
        </mxCell>
      </root>
    </mxGraphModel>
  </diagram>
</mxfile>
